# xmcd
#
# Track frame offsets: 
#        150
#        23975
#        41063
#        62980
#        87043
#        104025
#        128095
#        149320
#        169043
#        188473
#        204973
#        218695
#        247505
#        261248
#
# Disc length: 3730 seconds
#
# Revision: 0
# Processed by: cddbd v1.5.1PL0 Copyright (c) Steve Scherf et al.
# Submitted via: ExactAudioCopy v0.95a3
#
DISCID=bd0e900e
DTITLE=Валерий Леонтьев - Дело Вкуса
DYEAR=1989
DGENRE=Pop
TTITLE0=Всё Решено
TTITLE1=Проблемы
TTITLE2=Память
TTITLE3=Доктор-Время
TTITLE4=Друзья-Товарищи
TTITLE5=Маргарита
TTITLE6=Дело Вкуса
TTITLE7=Рисунок
TTITLE8=Останкинская Башня
TTITLE9=Телефоно-Буги
TTITLE10=Хобби
TTITLE11=Птица В Клетке
TTITLE12=Примерный Мальчик
TTITLE13=Старик
EXTD=
EXTT0=
EXTT1=
EXTT2=
EXTT3=
EXTT4=
EXTT5=
EXTT6=
EXTT7=
EXTT8=
EXTT9=
EXTT10=
EXTT11=
EXTT12=
EXTT13=
PLAYORDER=
